# xmcd
#
# Track frame offsets:
# 150
# 19282
# 42432
# 60947
# 66857
# 87770
# 103550
# 123625
# 135812
# 159135
# 180930
# 197402
# 212095
# 236600
# 251900
#
# Disc length: 3600 seconds
#
#
# Revision: 0
# Processed by: cddbd v1.5.2PL0 Copyright (c) Steve Scherf et al.
# Submitted via: Nero 7, 11, 10, 0 
#
DISCID=be0e0e0f
DTITLE=The Prowlers - The Prowlers
DYEAR=1994
DGENRE=Blues
TTITLE0=Engine #3
TTITLE1=Me And My Dog
TTITLE2=Future's Prospect
TTITLE3=Nightshade
TTITLE4=Fadin'
TTITLE5=That's The Way It Goes
TTITLE6=Sunny Day
TTITLE7=Lean Mean Machine
TTITLE8=Diggin' My Potatoes
TTITLE9=Groove Or Leave
TTITLE10=Barrelhouser
TTITLE11=Dedication To Merle Travis
TTITLE12=Going Through The Motions
TTITLE13=Bulldog
TTITLE14=Fadin'
EXTD=
EXTT0=Engine #3
EXTT1=Me And My Dog
EXTT2=Future's Prospect
EXTT3=Nightshade
EXTT4=Fadin'
EXTT5=That's The Way It Goes
EXTT6=Sunny Day
EXTT7=Lean Mean Machine
EXTT8=Diggin' My Potatoes
EXTT9=Groove Or Leave
EXTT10=Barrelhouser
EXTT11=Dedication To Merle Travis
EXTT12=Going Through The Motions
EXTT13=Bulldog
EXTT14=Fadin'
PLAYORDER=
